<svg xmlns="http://www.w3.org/2000/svg" xmlns:xlink="http://www.w3.org/1999/xlink" width="500" zoomAndPan="magnify" viewBox="0 0 375 149.999998" height="200" preserveAspectRatio="xMidYMid meet" version="1.0"><defs><g/><clipPath id="56b59e40b4"><path d="M 12.601562 35 L 93.601562 35 L 93.601562 115.0625 L 12.601562 115.0625 Z M 12.601562 35 " clip-rule="nonzero"/></clipPath></defs><g clip-path="url(#56b59e40b4)"><path fill="#7baf2f" d="M 43.886719 69.539062 C 70.21875 68.792969 90.933594 82.257812 91.984375 109.308594 C 92.199219 114.621094 91.824219 115.027344 86.6875 115.027344 C 73.164062 115.046875 59.640625 115.0625 46.136719 115.027344 C 26.226562 114.976562 14.183594 103.75 13.273438 83.589844 C 12.613281 68.777344 12.917969 53.925781 12.757812 39.09375 C 12.722656 36.609375 13.433594 35.097656 16.183594 35.132812 C 32.417969 35.382812 48.703125 34.8125 64.867188 36.074219 C 79.816406 37.246094 90.734375 47.425781 92.5 60.871094 C 93.589844 69.132812 92.699219 77.65625 92.699219 87.335938 C 91.539062 84.070312 90.789062 81.917969 90.003906 79.769531 C 84.117188 63.800781 72.269531 55.382812 55.609375 55.3125 C 49.472656 55.277344 43.316406 55.328125 37.179688 55.292969 C 35.023438 55.277344 33.308594 55.703125 33.363281 58.386719 C 33.523438 66.289062 33.042969 74.265625 34.023438 82.0625 C 35.609375 94.621094 48.902344 100.054688 59.300781 92.933594 C 64.242188 89.539062 65.296875 82.628906 60.855469 78.597656 C 57.679688 75.722656 53.59375 73.855469 49.828125 71.707031 C 48.347656 70.871094 46.617188 70.515625 43.886719 69.539062 Z M 43.886719 69.539062 " fill-opacity="1" fill-rule="nonzero"/></g><g fill="#ffffff" fill-opacity="1"><g transform="translate(103.330281, 75.563659)"><g><path d="M 17.046875 0 L 10.15625 0 L -0.03125 -26.234375 L 7.078125 -26.234375 L 13.78125 -6.9375 L 20.5 -26.234375 L 27.359375 -26.234375 Z M 17.046875 0 "/></g></g></g><g fill="#ffffff" fill-opacity="1"><g transform="translate(133.972589, 75.563659)"><g><path d="M 23.15625 -20.984375 L 9.296875 -20.984375 L 9.296875 -15.78125 L 21.8125 -15.78125 L 21.8125 -10.53125 L 9.296875 -10.53125 L 9.296875 -5.25 L 23.5625 -5.25 L 23.5625 0 L 2.625 0 L 2.625 -26.234375 L 23.15625 -26.234375 Z M 23.15625 -20.984375 "/></g></g></g><g fill="#ffffff" fill-opacity="1"><g transform="translate(162.554694, 75.563659)"><g><path d="M 2.625 -26.234375 L 13.90625 -26.234375 C 18.019531 -26.234375 21.367188 -25.019531 23.953125 -22.59375 C 26.546875 -20.164062 27.84375 -17.003906 27.84375 -13.109375 C 27.84375 -9.242188 26.53125 -6.09375 23.90625 -3.65625 C 21.28125 -1.21875 17.859375 0 13.640625 0 L 2.625 0 Z M 9.296875 -20.90625 L 9.296875 -5.328125 L 14.046875 -5.328125 C 16.097656 -5.328125 17.78125 -6.039062 19.09375 -7.46875 C 20.40625 -8.90625 21.0625 -10.773438 21.0625 -13.078125 C 21.0625 -15.378906 20.375 -17.257812 19 -18.71875 C 17.625 -20.175781 15.875 -20.90625 13.75 -20.90625 Z M 9.296875 -20.90625 "/></g></g></g><g fill="#ffffff" fill-opacity="1"><g transform="translate(194.620403, 75.563659)"><g><path d="M 20.046875 -4.828125 L 8.578125 -4.828125 L 6.671875 0 L -0.1875 0 L 11.125 -26.234375 L 17.984375 -26.234375 L 29.03125 0 L 21.921875 0 Z M 18.09375 -9.890625 L 14.34375 -19.59375 L 10.53125 -9.890625 Z M 18.09375 -9.890625 "/></g></g></g><g fill="#ffffff" fill-opacity="1"><g transform="translate(226.798485, 75.563659)"><g/></g></g><g fill="#ffffff" fill-opacity="1"><g transform="translate(238.824177, 75.563659)"><g><path d="M 22.0625 -20.984375 L 9.296875 -20.984375 L 9.296875 -14.90625 L 21.0625 -14.90625 L 21.0625 -9.671875 L 9.296875 -9.671875 L 9.296875 0 L 2.625 0 L 2.625 -26.234375 L 22.0625 -26.234375 Z M 22.0625 -20.984375 "/></g></g></g><g fill="#ffffff" fill-opacity="1"><g transform="translate(264.784227, 75.563659)"><g><path d="M 9.296875 0 L 2.625 0 L 2.625 -26.234375 L 9.296875 -26.234375 Z M 9.296875 0 "/></g></g></g><g fill="#ffffff" fill-opacity="1"><g transform="translate(280.031299, 75.563659)"><g><path d="M 22.671875 -20.875 L 14.765625 -20.875 L 14.765625 0 L 8.09375 0 L 8.09375 -20.875 L 0.265625 -20.875 L 0.265625 -26.265625 L 22.671875 -26.265625 Z M 22.671875 -20.875 "/></g></g></g><g fill="#d9d9d9" fill-opacity="1"><g transform="translate(103.330281, 105.494161)"><g><path d="M 14.53125 -14.203125 L 14.53125 0 L 12.359375 0 L 4.53125 -9.625 L 4.53125 0 L 1.90625 0 L 1.90625 -14.203125 L 4.078125 -14.203125 L 11.921875 -4.59375 L 11.921875 -14.203125 Z M 14.53125 -14.203125 "/></g></g></g><g fill="#d9d9d9" fill-opacity="1"><g transform="translate(121.181992, 105.494161)"><g><path d="M 11.125 -3.28125 L 4.015625 -3.28125 L 2.625 0 L -0.09375 0 L 6.296875 -14.203125 L 8.890625 -14.203125 L 15.296875 0 L 12.546875 0 Z M 10.25 -5.359375 L 7.578125 -11.5625 L 4.90625 -5.359375 Z M 10.25 -5.359375 "/></g></g></g><g fill="#d9d9d9" fill-opacity="1"><g transform="translate(137.79631, 105.494161)"><g><path d="M 4.796875 -11.96875 L 0.078125 -11.96875 L 0.078125 -14.203125 L 12.140625 -14.203125 L 12.140625 -11.96875 L 7.421875 -11.96875 L 7.421875 0 L 4.796875 0 Z M 4.796875 -11.96875 "/></g></g></g><g fill="#d9d9d9" fill-opacity="1"><g transform="translate(151.428697, 105.494161)"><g><path d="M 8.015625 0.203125 C 6.054688 0.203125 4.523438 -0.347656 3.421875 -1.453125 C 2.328125 -2.554688 1.78125 -4.132812 1.78125 -6.1875 L 1.78125 -14.203125 L 4.421875 -14.203125 L 4.421875 -6.296875 C 4.421875 -3.503906 5.625 -2.109375 8.03125 -2.109375 C 10.425781 -2.109375 11.625 -3.503906 11.625 -6.296875 L 11.625 -14.203125 L 14.234375 -14.203125 L 14.234375 -6.1875 C 14.234375 -4.132812 13.6875 -2.554688 12.59375 -1.453125 C 11.5 -0.347656 9.972656 0.203125 8.015625 0.203125 Z M 8.015625 0.203125 "/></g></g></g><g fill="#d9d9d9" fill-opacity="1"><g transform="translate(168.854414, 105.494161)"><g><path d="M 11.203125 0 L 8.296875 -4.15625 C 8.179688 -4.144531 8 -4.140625 7.75 -4.140625 L 4.546875 -4.140625 L 4.546875 0 L 1.90625 0 L 1.90625 -14.203125 L 7.75 -14.203125 C 8.976562 -14.203125 10.050781 -14 10.96875 -13.59375 C 11.882812 -13.1875 12.582031 -12.601562 13.0625 -11.84375 C 13.550781 -11.09375 13.796875 -10.195312 13.796875 -9.15625 C 13.796875 -8.082031 13.535156 -7.160156 13.015625 -6.390625 C 12.492188 -5.617188 11.75 -5.046875 10.78125 -4.671875 L 14.046875 0 Z M 11.140625 -9.15625 C 11.140625 -10.0625 10.84375 -10.753906 10.25 -11.234375 C 9.65625 -11.722656 8.78125 -11.96875 7.625 -11.96875 L 4.546875 -11.96875 L 4.546875 -6.3125 L 7.625 -6.3125 C 8.78125 -6.3125 9.65625 -6.554688 10.25 -7.046875 C 10.84375 -7.546875 11.140625 -8.25 11.140625 -9.15625 Z M 11.140625 -9.15625 "/></g></g></g><g fill="#d9d9d9" fill-opacity="1"><g transform="translate(185.103599, 105.494161)"><g><path d="M 11.125 -3.28125 L 4.015625 -3.28125 L 2.625 0 L -0.09375 0 L 6.296875 -14.203125 L 8.890625 -14.203125 L 15.296875 0 L 12.546875 0 Z M 10.25 -5.359375 L 7.578125 -11.5625 L 4.90625 -5.359375 Z M 10.25 -5.359375 "/></g></g></g><g fill="#d9d9d9" fill-opacity="1"><g transform="translate(201.717913, 105.494161)"><g/></g></g><g fill="#d9d9d9" fill-opacity="1"><g transform="translate(208.737329, 105.494161)"><g><path d="M 14.53125 -14.203125 L 14.53125 0 L 12.359375 0 L 4.53125 -9.625 L 4.53125 0 L 1.90625 0 L 1.90625 -14.203125 L 4.078125 -14.203125 L 11.921875 -4.59375 L 11.921875 -14.203125 Z M 14.53125 -14.203125 "/></g></g></g><g fill="#d9d9d9" fill-opacity="1"><g transform="translate(226.589036, 105.494161)"><g><path d="M 8.546875 0.203125 C 7.097656 0.203125 5.789062 -0.109375 4.625 -0.734375 C 3.457031 -1.367188 2.539062 -2.242188 1.875 -3.359375 C 1.21875 -4.472656 0.890625 -5.722656 0.890625 -7.109375 C 0.890625 -8.484375 1.21875 -9.726562 1.875 -10.84375 C 2.539062 -11.957031 3.457031 -12.828125 4.625 -13.453125 C 5.789062 -14.085938 7.097656 -14.40625 8.546875 -14.40625 C 9.992188 -14.40625 11.296875 -14.085938 12.453125 -13.453125 C 13.617188 -12.828125 14.535156 -11.957031 15.203125 -10.84375 C 15.867188 -9.738281 16.203125 -8.492188 16.203125 -7.109375 C 16.203125 -5.710938 15.867188 -4.457031 15.203125 -3.34375 C 14.535156 -2.238281 13.617188 -1.367188 12.453125 -0.734375 C 11.296875 -0.109375 9.992188 0.203125 8.546875 0.203125 Z M 8.546875 -2.109375 C 9.492188 -2.109375 10.34375 -2.320312 11.09375 -2.75 C 11.851562 -3.175781 12.445312 -3.769531 12.875 -4.53125 C 13.3125 -5.300781 13.53125 -6.160156 13.53125 -7.109375 C 13.53125 -8.054688 13.3125 -8.910156 12.875 -9.671875 C 12.445312 -10.429688 11.851562 -11.023438 11.09375 -11.453125 C 10.34375 -11.878906 9.492188 -12.09375 8.546875 -12.09375 C 7.597656 -12.09375 6.742188 -11.878906 5.984375 -11.453125 C 5.222656 -11.023438 4.625 -10.429688 4.1875 -9.671875 C 3.757812 -8.910156 3.546875 -8.054688 3.546875 -7.109375 C 3.546875 -6.160156 3.757812 -5.300781 4.1875 -4.53125 C 4.625 -3.769531 5.222656 -3.175781 5.984375 -2.75 C 6.742188 -2.320312 7.597656 -2.109375 8.546875 -2.109375 Z M 8.546875 -2.109375 "/></g></g></g><g fill="#d9d9d9" fill-opacity="1"><g transform="translate(245.089863, 105.494161)"><g><path d="M 8.015625 0.203125 C 6.054688 0.203125 4.523438 -0.347656 3.421875 -1.453125 C 2.328125 -2.554688 1.78125 -4.132812 1.78125 -6.1875 L 1.78125 -14.203125 L 4.421875 -14.203125 L 4.421875 -6.296875 C 4.421875 -3.503906 5.625 -2.109375 8.03125 -2.109375 C 10.425781 -2.109375 11.625 -3.503906 11.625 -6.296875 L 11.625 -14.203125 L 14.234375 -14.203125 L 14.234375 -6.1875 C 14.234375 -4.132812 13.6875 -2.554688 12.59375 -1.453125 C 11.5 -0.347656 9.972656 0.203125 8.015625 0.203125 Z M 8.015625 0.203125 "/></g></g></g><g fill="#d9d9d9" fill-opacity="1"><g transform="translate(262.515574, 105.494161)"><g><path d="M 11.203125 0 L 8.296875 -4.15625 C 8.179688 -4.144531 8 -4.140625 7.75 -4.140625 L 4.546875 -4.140625 L 4.546875 0 L 1.90625 0 L 1.90625 -14.203125 L 7.75 -14.203125 C 8.976562 -14.203125 10.050781 -14 10.96875 -13.59375 C 11.882812 -13.1875 12.582031 -12.601562 13.0625 -11.84375 C 13.550781 -11.09375 13.796875 -10.195312 13.796875 -9.15625 C 13.796875 -8.082031 13.535156 -7.160156 13.015625 -6.390625 C 12.492188 -5.617188 11.75 -5.046875 10.78125 -4.671875 L 14.046875 0 Z M 11.140625 -9.15625 C 11.140625 -10.0625 10.84375 -10.753906 10.25 -11.234375 C 9.65625 -11.722656 8.78125 -11.96875 7.625 -11.96875 L 4.546875 -11.96875 L 4.546875 -6.3125 L 7.625 -6.3125 C 8.78125 -6.3125 9.65625 -6.554688 10.25 -7.046875 C 10.84375 -7.546875 11.140625 -8.25 11.140625 -9.15625 Z M 11.140625 -9.15625 "/></g></g></g><g fill="#d9d9d9" fill-opacity="1"><g transform="translate(278.764753, 105.494161)"><g><path d="M 1.90625 -14.203125 L 4.546875 -14.203125 L 4.546875 0 L 1.90625 0 Z M 1.90625 -14.203125 "/></g></g></g><g fill="#d9d9d9" fill-opacity="1"><g transform="translate(286.656426, 105.494161)"><g><path d="M 6.3125 0.203125 C 5.21875 0.203125 4.160156 0.046875 3.140625 -0.265625 C 2.117188 -0.578125 1.304688 -0.988281 0.703125 -1.5 L 1.625 -3.546875 C 2.207031 -3.085938 2.921875 -2.710938 3.765625 -2.421875 C 4.609375 -2.128906 5.457031 -1.984375 6.3125 -1.984375 C 7.363281 -1.984375 8.148438 -2.148438 8.671875 -2.484375 C 9.191406 -2.828125 9.453125 -3.28125 9.453125 -3.84375 C 9.453125 -4.238281 9.304688 -4.566406 9.015625 -4.828125 C 8.722656 -5.097656 8.351562 -5.304688 7.90625 -5.453125 C 7.46875 -5.609375 6.863281 -5.78125 6.09375 -5.96875 C 5.007812 -6.226562 4.128906 -6.484375 3.453125 -6.734375 C 2.785156 -6.992188 2.210938 -7.394531 1.734375 -7.9375 C 1.253906 -8.488281 1.015625 -9.234375 1.015625 -10.171875 C 1.015625 -10.953125 1.226562 -11.664062 1.65625 -12.3125 C 2.082031 -12.957031 2.722656 -13.46875 3.578125 -13.84375 C 4.441406 -14.21875 5.492188 -14.40625 6.734375 -14.40625 C 7.597656 -14.40625 8.445312 -14.296875 9.28125 -14.078125 C 10.125 -13.867188 10.851562 -13.5625 11.46875 -13.15625 L 10.640625 -11.109375 C 10.015625 -11.472656 9.363281 -11.75 8.6875 -11.9375 C 8.007812 -12.125 7.351562 -12.21875 6.71875 -12.21875 C 5.675781 -12.21875 4.898438 -12.039062 4.390625 -11.6875 C 3.890625 -11.332031 3.640625 -10.867188 3.640625 -10.296875 C 3.640625 -9.890625 3.78125 -9.554688 4.0625 -9.296875 C 4.351562 -9.035156 4.722656 -8.832031 5.171875 -8.6875 C 5.617188 -8.539062 6.226562 -8.367188 7 -8.171875 C 8.050781 -7.929688 8.914062 -7.675781 9.59375 -7.40625 C 10.269531 -7.144531 10.847656 -6.742188 11.328125 -6.203125 C 11.816406 -5.671875 12.0625 -4.941406 12.0625 -4.015625 C 12.0625 -3.234375 11.847656 -2.523438 11.421875 -1.890625 C 10.992188 -1.253906 10.34375 -0.742188 9.46875 -0.359375 C 8.601562 0.015625 7.550781 0.203125 6.3125 0.203125 Z M 6.3125 0.203125 "/></g></g></g><g fill="#d9d9d9" fill-opacity="1"><g transform="translate(300.836525, 105.494161)"><g><path d="M 14.53125 -14.203125 L 14.53125 0 L 11.890625 0 L 11.890625 -6.09375 L 4.546875 -6.09375 L 4.546875 0 L 1.90625 0 L 1.90625 -14.203125 L 4.546875 -14.203125 L 4.546875 -8.34375 L 11.890625 -8.34375 L 11.890625 -14.203125 Z M 14.53125 -14.203125 "/></g></g></g></svg>